<?xml version="1.0" standalone="no"?>
<!DOCTYPE svg PUBLIC "-//W3C//DTD SVG 20010904//EN"
 "http://www.w3.org/TR/2001/REC-SVG-20010904/DTD/svg10.dtd">
<svg version="1.0" xmlns="http://www.w3.org/2000/svg"
 width="96.000000pt" height="96.000000pt" viewBox="0 0 96.000000 96.000000"
 preserveAspectRatio="xMidYMid meet">
<metadata>
Created by potrace 1.14, written by Peter Selinger 2001-2017
</metadata>
<g transform="translate(0.000000,96.000000) scale(0.100000,-0.100000)"
fill="#000000" stroke="none">
<path d="M75 880 c-19 -21 -17 -22 120 -160 77 -77 136 -142 133 -146 -15 -14
-69 10 -105 47 -43 44 -73 49 -103 17 -24 -26 -25 -46 -4 -73 12 -17 27 -20
83 -20 80 0 101 -13 101 -61 0 -30 -3 -34 -27 -34 -16 1 -39 7 -53 15 -38 22
-78 18 -105 -10 -32 -31 -32 -75 -3 -110 35 -40 80 -37 126 7 51 49 75 53 102
16 32 -43 21 -72 -39 -102 -64 -33 -79 -72 -44 -114 50 -59 123 -22 121 60 0
43 16 83 37 92 6 2 23 2 38 -1 27 -5 50 -50 43 -83 -1 -8 -6 -32 -11 -53 -6
-30 -4 -42 10 -57 26 -28 71 -26 91 5 19 29 12 59 -22 96 -14 14 -27 41 -30
60 -5 31 -3 36 21 47 25 11 31 10 51 -9 13 -13 24 -31 24 -41 0 -49 40 -89 92
-92 9 -1 44 -28 78 -60 l61 -59 22 21 21 22 -58 59 c-43 43 -57 65 -55 82 7
57 -22 88 -90 96 -20 3 -44 12 -54 22 -16 16 -16 20 -2 54 13 31 20 37 46 37
17 0 45 -11 63 -25 43 -33 79 -32 105 1 27 35 26 59 -4 89 -29 30 -54 31 -97
5 -55 -33 -108 -22 -108 22 0 25 58 58 103 58 24 0 44 7 57 20 23 23 24 30 8
65 -23 51 -85 41 -113 -19 -9 -18 -31 -42 -50 -52 -33 -17 -35 -17 -54 1 -31
28 -26 52 19 80 65 41 77 84 37 131 -31 35 -77 37 -113 3 -22 -21 -25 -29 -19
-64 6 -42 8 -71 6 -92 -2 -19 -76 -16 -91 2 -9 11 -11 33 -6 76 6 47 4 66 -9
85 -32 50 -125 19 -125 -41 0 -17 15 -40 45 -69 30 -30 45 -53 45 -70 0 -14
-3 -26 -8 -26 -4 0 -68 61 -142 135 -74 74 -137 135 -141 135 -3 0 -14 -9 -24
-20z"/>
</g>
</svg>
